<mxfile host="app.diagrams.net" modified="2024-04-15T07:39:40.861Z" agent="Mozilla/5.0 (Windows NT 10.0; Win64; x64) AppleWebKit/537.36 (KHTML, like Gecko) Chrome/123.0.0.0 Safari/537.36" etag="yZRg2abX9d_gJtK0xHpg" version="24.1.0" type="github">
  <diagram name="第 1 页" id="_uJVVce2v_C4RhLylyxH">
    <mxGraphModel dx="1034" dy="507" grid="1" gridSize="10" guides="1" tooltips="1" connect="1" arrows="1" fold="1" page="1" pageScale="1" pageWidth="827" pageHeight="1169" math="0" shadow="0">
      <root>
        <mxCell id="0" />
        <mxCell id="1" parent="0" />
        <mxCell id="U8lzZILdDupNXbOiMmm9-1" style="edgeStyle=orthogonalEdgeStyle;rounded=1;orthogonalLoop=1;jettySize=auto;html=1;entryX=0;entryY=0.5;entryDx=0;entryDy=0;" parent="1" source="U8lzZILdDupNXbOiMmm9-7" target="U8lzZILdDupNXbOiMmm9-14" edge="1">
          <mxGeometry relative="1" as="geometry" />
        </mxCell>
        <mxCell id="U8lzZILdDupNXbOiMmm9-2" style="edgeStyle=orthogonalEdgeStyle;rounded=1;orthogonalLoop=1;jettySize=auto;html=1;entryX=0;entryY=0.5;entryDx=0;entryDy=0;" parent="1" source="U8lzZILdDupNXbOiMmm9-7" target="U8lzZILdDupNXbOiMmm9-23" edge="1">
          <mxGeometry relative="1" as="geometry" />
        </mxCell>
        <mxCell id="U8lzZILdDupNXbOiMmm9-3" style="edgeStyle=orthogonalEdgeStyle;rounded=1;orthogonalLoop=1;jettySize=auto;html=1;entryX=1;entryY=0.5;entryDx=0;entryDy=0;" parent="1" source="U8lzZILdDupNXbOiMmm9-7" target="U8lzZILdDupNXbOiMmm9-29" edge="1">
          <mxGeometry relative="1" as="geometry" />
        </mxCell>
        <mxCell id="U8lzZILdDupNXbOiMmm9-4" style="edgeStyle=orthogonalEdgeStyle;rounded=1;orthogonalLoop=1;jettySize=auto;html=1;entryX=1;entryY=0.5;entryDx=0;entryDy=0;" parent="1" source="U8lzZILdDupNXbOiMmm9-7" target="U8lzZILdDupNXbOiMmm9-61" edge="1">
          <mxGeometry relative="1" as="geometry" />
        </mxCell>
        <mxCell id="U8lzZILdDupNXbOiMmm9-5" style="edgeStyle=orthogonalEdgeStyle;rounded=1;orthogonalLoop=1;jettySize=auto;html=1;entryX=1;entryY=0.5;entryDx=0;entryDy=0;" parent="1" source="U8lzZILdDupNXbOiMmm9-7" target="U8lzZILdDupNXbOiMmm9-35" edge="1">
          <mxGeometry relative="1" as="geometry" />
        </mxCell>
        <mxCell id="U8lzZILdDupNXbOiMmm9-6" style="edgeStyle=orthogonalEdgeStyle;rounded=1;orthogonalLoop=1;jettySize=auto;html=1;entryX=0.5;entryY=0;entryDx=0;entryDy=0;" parent="1" source="U8lzZILdDupNXbOiMmm9-7" target="U8lzZILdDupNXbOiMmm9-37" edge="1">
          <mxGeometry relative="1" as="geometry" />
        </mxCell>
        <mxCell id="U8lzZILdDupNXbOiMmm9-7" value="OMS" style="shape=cylinder3;whiteSpace=wrap;html=1;boundedLbl=1;backgroundOutline=1;size=15;fillColor=#f8cecc;strokeColor=#b85450;rounded=1;" parent="1" vertex="1">
          <mxGeometry x="520" y="265" width="60" height="80" as="geometry" />
        </mxCell>
        <mxCell id="U8lzZILdDupNXbOiMmm9-8" style="edgeStyle=orthogonalEdgeStyle;rounded=1;orthogonalLoop=1;jettySize=auto;html=1;entryX=0;entryY=0.75;entryDx=0;entryDy=0;" parent="1" source="U8lzZILdDupNXbOiMmm9-14" target="U8lzZILdDupNXbOiMmm9-16" edge="1">
          <mxGeometry relative="1" as="geometry" />
        </mxCell>
        <mxCell id="U8lzZILdDupNXbOiMmm9-9" style="edgeStyle=orthogonalEdgeStyle;rounded=1;orthogonalLoop=1;jettySize=auto;html=1;entryX=0;entryY=0.5;entryDx=0;entryDy=0;" parent="1" source="U8lzZILdDupNXbOiMmm9-14" target="U8lzZILdDupNXbOiMmm9-15" edge="1">
          <mxGeometry relative="1" as="geometry" />
        </mxCell>
        <mxCell id="U8lzZILdDupNXbOiMmm9-10" style="edgeStyle=orthogonalEdgeStyle;rounded=1;orthogonalLoop=1;jettySize=auto;html=1;entryX=0;entryY=0.5;entryDx=0;entryDy=0;" parent="1" source="U8lzZILdDupNXbOiMmm9-14" target="U8lzZILdDupNXbOiMmm9-17" edge="1">
          <mxGeometry relative="1" as="geometry" />
        </mxCell>
        <mxCell id="U8lzZILdDupNXbOiMmm9-11" style="edgeStyle=orthogonalEdgeStyle;rounded=1;orthogonalLoop=1;jettySize=auto;html=1;entryX=0;entryY=0.5;entryDx=0;entryDy=0;" parent="1" source="U8lzZILdDupNXbOiMmm9-14" target="U8lzZILdDupNXbOiMmm9-18" edge="1">
          <mxGeometry relative="1" as="geometry" />
        </mxCell>
        <mxCell id="U8lzZILdDupNXbOiMmm9-12" style="edgeStyle=orthogonalEdgeStyle;rounded=1;orthogonalLoop=1;jettySize=auto;html=1;entryX=0;entryY=0.5;entryDx=0;entryDy=0;" parent="1" source="U8lzZILdDupNXbOiMmm9-14" target="U8lzZILdDupNXbOiMmm9-64" edge="1">
          <mxGeometry relative="1" as="geometry" />
        </mxCell>
        <mxCell id="U8lzZILdDupNXbOiMmm9-13" style="edgeStyle=orthogonalEdgeStyle;rounded=1;orthogonalLoop=1;jettySize=auto;html=1;entryX=0;entryY=0.5;entryDx=0;entryDy=0;" parent="1" source="U8lzZILdDupNXbOiMmm9-14" target="U8lzZILdDupNXbOiMmm9-65" edge="1">
          <mxGeometry relative="1" as="geometry" />
        </mxCell>
        <mxCell id="U8lzZILdDupNXbOiMmm9-14" value="订单表" style="rounded=1;whiteSpace=wrap;html=1;fillColor=#d5e8d4;strokeColor=#82b366;" parent="1" vertex="1">
          <mxGeometry x="710" y="135" width="120" height="60" as="geometry" />
        </mxCell>
        <mxCell id="U8lzZILdDupNXbOiMmm9-15" value="&lt;div&gt;SalesOrderLine&lt;/div&gt;&lt;div&gt;销售订单明细表&lt;/div&gt;" style="text;html=1;align=center;verticalAlign=middle;whiteSpace=wrap;rounded=1;fillColor=#d5e8d4;strokeColor=#82b366;" parent="1" vertex="1">
          <mxGeometry x="910" y="89" width="120" height="30" as="geometry" />
        </mxCell>
        <mxCell id="U8lzZILdDupNXbOiMmm9-16" value="SalesOrder&lt;div&gt;订单表&lt;/div&gt;" style="text;html=1;align=center;verticalAlign=middle;whiteSpace=wrap;rounded=1;fillColor=#d5e8d4;strokeColor=#82b366;labelBorderColor=none;textShadow=0;" parent="1" vertex="1">
          <mxGeometry x="910" y="40" width="120" height="30" as="geometry" />
        </mxCell>
        <mxCell id="U8lzZILdDupNXbOiMmm9-17" value="&lt;div&gt;DouyinSalesOrder&lt;/div&gt;&lt;div&gt;抖音销售订单表&lt;/div&gt;" style="text;html=1;align=center;verticalAlign=middle;whiteSpace=wrap;rounded=1;fillColor=#d5e8d4;strokeColor=#82b366;" parent="1" vertex="1">
          <mxGeometry x="910" y="138" width="120" height="30" as="geometry" />
        </mxCell>
        <mxCell id="U8lzZILdDupNXbOiMmm9-18" value="&lt;div&gt;DouyinSubOrder&lt;/div&gt;&lt;div&gt;抖音销售订单明细表&lt;/div&gt;" style="text;html=1;align=center;verticalAlign=middle;whiteSpace=wrap;rounded=1;fillColor=#d5e8d4;strokeColor=#82b366;" parent="1" vertex="1">
          <mxGeometry x="910" y="187" width="120" height="30" as="geometry" />
        </mxCell>
        <mxCell id="U8lzZILdDupNXbOiMmm9-19" style="edgeStyle=orthogonalEdgeStyle;rounded=1;orthogonalLoop=1;jettySize=auto;html=1;entryX=0;entryY=0.5;entryDx=0;entryDy=0;" parent="1" source="U8lzZILdDupNXbOiMmm9-23" target="U8lzZILdDupNXbOiMmm9-38" edge="1">
          <mxGeometry relative="1" as="geometry" />
        </mxCell>
        <mxCell id="U8lzZILdDupNXbOiMmm9-20" style="edgeStyle=orthogonalEdgeStyle;rounded=1;orthogonalLoop=1;jettySize=auto;html=1;entryX=0;entryY=0.5;entryDx=0;entryDy=0;" parent="1" source="U8lzZILdDupNXbOiMmm9-23" target="U8lzZILdDupNXbOiMmm9-40" edge="1">
          <mxGeometry relative="1" as="geometry" />
        </mxCell>
        <mxCell id="U8lzZILdDupNXbOiMmm9-21" style="edgeStyle=orthogonalEdgeStyle;rounded=1;orthogonalLoop=1;jettySize=auto;html=1;entryX=0;entryY=0.5;entryDx=0;entryDy=0;" parent="1" source="U8lzZILdDupNXbOiMmm9-23" target="U8lzZILdDupNXbOiMmm9-41" edge="1">
          <mxGeometry relative="1" as="geometry" />
        </mxCell>
        <mxCell id="U8lzZILdDupNXbOiMmm9-22" style="edgeStyle=orthogonalEdgeStyle;rounded=1;orthogonalLoop=1;jettySize=auto;html=1;entryX=1;entryY=0.5;entryDx=0;entryDy=0;" parent="1" source="U8lzZILdDupNXbOiMmm9-23" target="U8lzZILdDupNXbOiMmm9-42" edge="1">
          <mxGeometry relative="1" as="geometry" />
        </mxCell>
        <mxCell id="U8lzZILdDupNXbOiMmm9-23" value="基础数据表" style="rounded=1;whiteSpace=wrap;html=1;fillColor=#dae8fc;strokeColor=#6c8ebf;" parent="1" vertex="1">
          <mxGeometry x="720" y="440" width="120" height="60" as="geometry" />
        </mxCell>
        <mxCell id="U8lzZILdDupNXbOiMmm9-24" style="edgeStyle=orthogonalEdgeStyle;rounded=1;orthogonalLoop=1;jettySize=auto;html=1;entryX=1;entryY=0.5;entryDx=0;entryDy=0;" parent="1" source="U8lzZILdDupNXbOiMmm9-29" target="U8lzZILdDupNXbOiMmm9-39" edge="1">
          <mxGeometry relative="1" as="geometry" />
        </mxCell>
        <mxCell id="U8lzZILdDupNXbOiMmm9-25" value="" style="edgeStyle=orthogonalEdgeStyle;rounded=1;orthogonalLoop=1;jettySize=auto;html=1;" parent="1" source="U8lzZILdDupNXbOiMmm9-29" target="U8lzZILdDupNXbOiMmm9-44" edge="1">
          <mxGeometry relative="1" as="geometry" />
        </mxCell>
        <mxCell id="U8lzZILdDupNXbOiMmm9-26" value="" style="edgeStyle=orthogonalEdgeStyle;rounded=1;orthogonalLoop=1;jettySize=auto;html=1;" parent="1" source="U8lzZILdDupNXbOiMmm9-29" target="U8lzZILdDupNXbOiMmm9-44" edge="1">
          <mxGeometry relative="1" as="geometry" />
        </mxCell>
        <mxCell id="U8lzZILdDupNXbOiMmm9-27" value="" style="edgeStyle=orthogonalEdgeStyle;rounded=1;orthogonalLoop=1;jettySize=auto;html=1;" parent="1" source="U8lzZILdDupNXbOiMmm9-29" target="U8lzZILdDupNXbOiMmm9-44" edge="1">
          <mxGeometry relative="1" as="geometry" />
        </mxCell>
        <mxCell id="U8lzZILdDupNXbOiMmm9-28" style="edgeStyle=orthogonalEdgeStyle;rounded=1;orthogonalLoop=1;jettySize=auto;html=1;" parent="1" source="U8lzZILdDupNXbOiMmm9-29" target="U8lzZILdDupNXbOiMmm9-43" edge="1">
          <mxGeometry relative="1" as="geometry" />
        </mxCell>
        <mxCell id="U8lzZILdDupNXbOiMmm9-29" value="入库单" style="rounded=1;whiteSpace=wrap;html=1;fillColor=#e1d5e7;strokeColor=#9673a6;" parent="1" vertex="1">
          <mxGeometry x="310" y="275" width="120" height="60" as="geometry" />
        </mxCell>
        <mxCell id="U8lzZILdDupNXbOiMmm9-30" style="edgeStyle=orthogonalEdgeStyle;rounded=1;orthogonalLoop=1;jettySize=auto;html=1;entryX=1;entryY=0.5;entryDx=0;entryDy=0;" parent="1" source="U8lzZILdDupNXbOiMmm9-35" target="U8lzZILdDupNXbOiMmm9-47" edge="1">
          <mxGeometry relative="1" as="geometry" />
        </mxCell>
        <mxCell id="U8lzZILdDupNXbOiMmm9-31" style="edgeStyle=orthogonalEdgeStyle;rounded=1;orthogonalLoop=1;jettySize=auto;html=1;entryX=1;entryY=0.5;entryDx=0;entryDy=0;" parent="1" source="U8lzZILdDupNXbOiMmm9-35" target="U8lzZILdDupNXbOiMmm9-45" edge="1">
          <mxGeometry relative="1" as="geometry" />
        </mxCell>
        <mxCell id="U8lzZILdDupNXbOiMmm9-32" style="edgeStyle=orthogonalEdgeStyle;rounded=1;orthogonalLoop=1;jettySize=auto;html=1;entryX=1;entryY=0.5;entryDx=0;entryDy=0;" parent="1" source="U8lzZILdDupNXbOiMmm9-35" target="U8lzZILdDupNXbOiMmm9-49" edge="1">
          <mxGeometry relative="1" as="geometry" />
        </mxCell>
        <mxCell id="U8lzZILdDupNXbOiMmm9-33" style="edgeStyle=orthogonalEdgeStyle;rounded=1;orthogonalLoop=1;jettySize=auto;html=1;entryX=1;entryY=0.5;entryDx=0;entryDy=0;" parent="1" source="U8lzZILdDupNXbOiMmm9-35" target="U8lzZILdDupNXbOiMmm9-46" edge="1">
          <mxGeometry relative="1" as="geometry" />
        </mxCell>
        <mxCell id="U8lzZILdDupNXbOiMmm9-34" style="edgeStyle=orthogonalEdgeStyle;rounded=1;orthogonalLoop=1;jettySize=auto;html=1;entryX=1;entryY=0.5;entryDx=0;entryDy=0;" parent="1" source="U8lzZILdDupNXbOiMmm9-35" target="U8lzZILdDupNXbOiMmm9-48" edge="1">
          <mxGeometry relative="1" as="geometry" />
        </mxCell>
        <mxCell id="U8lzZILdDupNXbOiMmm9-35" value="客退表" style="rounded=1;whiteSpace=wrap;html=1;fillColor=#fff2cc;strokeColor=#d6b656;" parent="1" vertex="1">
          <mxGeometry x="310" y="440" width="120" height="60" as="geometry" />
        </mxCell>
        <mxCell id="U8lzZILdDupNXbOiMmm9-36" style="edgeStyle=orthogonalEdgeStyle;rounded=1;orthogonalLoop=1;jettySize=auto;html=1;" parent="1" source="U8lzZILdDupNXbOiMmm9-37" target="U8lzZILdDupNXbOiMmm9-54" edge="1">
          <mxGeometry relative="1" as="geometry" />
        </mxCell>
        <mxCell id="U8lzZILdDupNXbOiMmm9-37" value="1.销售订单已发货后推送队列&lt;div&gt;2.退货入库完成后推送队列都是推送到ops的queu表&lt;/div&gt;&lt;div&gt;&lt;br&gt;&lt;/div&gt;" style="text;html=1;align=center;verticalAlign=middle;whiteSpace=wrap;rounded=1;fillColor=#fff2cc;strokeColor=#d6b656;" parent="1" vertex="1">
          <mxGeometry x="485" y="590" width="130" height="90" as="geometry" />
        </mxCell>
        <mxCell id="U8lzZILdDupNXbOiMmm9-38" value="&lt;div&gt;Platform&lt;/div&gt;&lt;div&gt;店铺&lt;/div&gt;" style="text;html=1;align=center;verticalAlign=middle;whiteSpace=wrap;rounded=1;fillColor=#dae8fc;strokeColor=#6c8ebf;" parent="1" vertex="1">
          <mxGeometry x="910" y="370" width="120" height="30" as="geometry" />
        </mxCell>
        <mxCell id="U8lzZILdDupNXbOiMmm9-39" value="&lt;div&gt;Warehousing&lt;/div&gt;&lt;div&gt;入库单&lt;/div&gt;" style="text;html=1;align=center;verticalAlign=middle;whiteSpace=wrap;rounded=1;fillColor=#e1d5e7;strokeColor=#9673a6;" parent="1" vertex="1">
          <mxGeometry x="40" y="235" width="190" height="30" as="geometry" />
        </mxCell>
        <mxCell id="U8lzZILdDupNXbOiMmm9-40" value="&lt;div&gt;Brand&lt;/div&gt;&lt;div&gt;品牌&lt;/div&gt;" style="text;html=1;align=center;verticalAlign=middle;whiteSpace=wrap;rounded=1;fillColor=#dae8fc;strokeColor=#6c8ebf;" parent="1" vertex="1">
          <mxGeometry x="910" y="430" width="120" height="30" as="geometry" />
        </mxCell>
        <mxCell id="U8lzZILdDupNXbOiMmm9-41" value="&lt;div&gt;Product&lt;/div&gt;&lt;div&gt;产品资料&lt;/div&gt;" style="text;html=1;align=center;verticalAlign=middle;whiteSpace=wrap;rounded=1;fillColor=#dae8fc;strokeColor=#6c8ebf;" parent="1" vertex="1">
          <mxGeometry x="910" y="490" width="120" height="30" as="geometry" />
        </mxCell>
        <mxCell id="U8lzZILdDupNXbOiMmm9-42" value="&lt;div&gt;Platform&lt;/div&gt;&lt;div&gt;店铺&lt;/div&gt;" style="text;html=1;align=center;verticalAlign=middle;whiteSpace=wrap;rounded=1;fillColor=#dae8fc;strokeColor=#6c8ebf;direction=west;" parent="1" vertex="1">
          <mxGeometry x="910" y="550" width="120" height="30" as="geometry" />
        </mxCell>
        <mxCell id="U8lzZILdDupNXbOiMmm9-43" value="&lt;div&gt;WarehousingAdvanceLine&lt;/div&gt;&lt;div&gt;入库单预收明细&lt;/div&gt;" style="text;html=1;align=center;verticalAlign=middle;whiteSpace=wrap;rounded=1;fillColor=#e1d5e7;strokeColor=#9673a6;" parent="1" vertex="1">
          <mxGeometry x="40" y="275" width="190" height="30" as="geometry" />
        </mxCell>
        <mxCell id="U8lzZILdDupNXbOiMmm9-44" value="&lt;div&gt;WarehousingActualLine&lt;/div&gt;&lt;div&gt;入库单实收明细&lt;/div&gt;" style="text;html=1;align=center;verticalAlign=middle;whiteSpace=wrap;rounded=1;fillColor=#e1d5e7;strokeColor=#9673a6;" parent="1" vertex="1">
          <mxGeometry x="40" y="315" width="190" height="30" as="geometry" />
        </mxCell>
        <mxCell id="U8lzZILdDupNXbOiMmm9-45" value="RmaAction&lt;div&gt;客退动作=&amp;gt;&lt;span style=&quot;background-color: initial;&quot;&gt;退款或补发&lt;/span&gt;&lt;/div&gt;" style="text;html=1;align=center;verticalAlign=middle;whiteSpace=wrap;rounded=1;fillColor=#fff2cc;strokeColor=#d6b656;" parent="1" vertex="1">
          <mxGeometry x="40" y="420" width="190" height="30" as="geometry" />
        </mxCell>
        <mxCell id="U8lzZILdDupNXbOiMmm9-46" value="&lt;div&gt;RmaRefundLine&lt;/div&gt;&lt;div&gt;客退退款明细&lt;/div&gt;" style="text;html=1;align=center;verticalAlign=middle;whiteSpace=wrap;rounded=1;fillColor=#fff2cc;strokeColor=#d6b656;" parent="1" vertex="1">
          <mxGeometry x="40" y="520" width="190" height="30" as="geometry" />
        </mxCell>
        <mxCell id="U8lzZILdDupNXbOiMmm9-47" value="&lt;div&gt;ReturnMerchandiseAuthorization&lt;/div&gt;&lt;div&gt;客退主表&lt;/div&gt;" style="text;html=1;align=center;verticalAlign=middle;whiteSpace=wrap;rounded=1;fillColor=#fff2cc;strokeColor=#d6b656;" parent="1" vertex="1">
          <mxGeometry x="40" y="370" width="190" height="30" as="geometry" />
        </mxCell>
        <mxCell id="U8lzZILdDupNXbOiMmm9-48" value="RmaReissueLine&lt;div&gt;客退补发明细&lt;/div&gt;" style="text;html=1;align=center;verticalAlign=middle;whiteSpace=wrap;rounded=1;fillColor=#fff2cc;strokeColor=#d6b656;" parent="1" vertex="1">
          <mxGeometry x="40" y="570" width="190" height="30" as="geometry" />
        </mxCell>
        <mxCell id="U8lzZILdDupNXbOiMmm9-49" value="&lt;div&gt;RmaLine&lt;/div&gt;&lt;div&gt;客退明细&lt;/div&gt;" style="text;html=1;align=center;verticalAlign=middle;whiteSpace=wrap;rounded=1;fillColor=#fff2cc;strokeColor=#d6b656;" parent="1" vertex="1">
          <mxGeometry x="40" y="470" width="190" height="30" as="geometry" />
        </mxCell>
        <mxCell id="U8lzZILdDupNXbOiMmm9-50" style="edgeStyle=orthogonalEdgeStyle;rounded=1;orthogonalLoop=1;jettySize=auto;html=1;entryX=0;entryY=0.5;entryDx=0;entryDy=0;" parent="1" source="U8lzZILdDupNXbOiMmm9-54" target="U8lzZILdDupNXbOiMmm9-79" edge="1">
          <mxGeometry relative="1" as="geometry" />
        </mxCell>
        <mxCell id="U8lzZILdDupNXbOiMmm9-51" style="edgeStyle=orthogonalEdgeStyle;rounded=1;orthogonalLoop=1;jettySize=auto;html=1;entryX=0;entryY=0.5;entryDx=0;entryDy=0;" parent="1" source="U8lzZILdDupNXbOiMmm9-54" target="U8lzZILdDupNXbOiMmm9-80" edge="1">
          <mxGeometry relative="1" as="geometry" />
        </mxCell>
        <mxCell id="U8lzZILdDupNXbOiMmm9-52" style="edgeStyle=orthogonalEdgeStyle;rounded=1;orthogonalLoop=1;jettySize=auto;html=1;entryX=1;entryY=0.5;entryDx=0;entryDy=0;" parent="1" source="U8lzZILdDupNXbOiMmm9-54" target="U8lzZILdDupNXbOiMmm9-77" edge="1">
          <mxGeometry relative="1" as="geometry" />
        </mxCell>
        <mxCell id="U8lzZILdDupNXbOiMmm9-53" style="edgeStyle=orthogonalEdgeStyle;rounded=1;orthogonalLoop=1;jettySize=auto;html=1;entryX=1;entryY=0.5;entryDx=0;entryDy=0;" parent="1" source="U8lzZILdDupNXbOiMmm9-54" target="U8lzZILdDupNXbOiMmm9-83" edge="1">
          <mxGeometry relative="1" as="geometry" />
        </mxCell>
        <mxCell id="U8lzZILdDupNXbOiMmm9-54" value="ops" style="shape=cylinder3;whiteSpace=wrap;html=1;boundedLbl=1;backgroundOutline=1;size=15;fillColor=#f8cecc;strokeColor=#b85450;rounded=1;" parent="1" vertex="1">
          <mxGeometry x="520" y="860" width="60" height="80" as="geometry" />
        </mxCell>
        <mxCell id="U8lzZILdDupNXbOiMmm9-55" value="type 1 发货 2 退货" style="text;html=1;align=center;verticalAlign=middle;whiteSpace=wrap;rounded=1;fillColor=#ffcd28;strokeColor=#d79b00;gradientColor=#ffa500;" parent="1" vertex="1">
          <mxGeometry x="910" y="775" width="120" height="30" as="geometry" />
        </mxCell>
        <mxCell id="U8lzZILdDupNXbOiMmm9-56" style="edgeStyle=orthogonalEdgeStyle;rounded=1;orthogonalLoop=1;jettySize=auto;html=1;entryX=1;entryY=0.5;entryDx=0;entryDy=0;" parent="1" source="U8lzZILdDupNXbOiMmm9-58" target="U8lzZILdDupNXbOiMmm9-70" edge="1">
          <mxGeometry relative="1" as="geometry" />
        </mxCell>
        <mxCell id="U8lzZILdDupNXbOiMmm9-57" style="edgeStyle=orthogonalEdgeStyle;rounded=1;orthogonalLoop=1;jettySize=auto;html=1;entryX=0;entryY=0.5;entryDx=0;entryDy=0;" parent="1" source="U8lzZILdDupNXbOiMmm9-58" target="U8lzZILdDupNXbOiMmm9-71" edge="1">
          <mxGeometry relative="1" as="geometry" />
        </mxCell>
        <mxCell id="U8lzZILdDupNXbOiMmm9-58" value="下游品牌系统" style="shape=cylinder3;whiteSpace=wrap;html=1;boundedLbl=1;backgroundOutline=1;size=15;fillColor=#f8cecc;strokeColor=#b85450;rounded=1;" parent="1" vertex="1">
          <mxGeometry x="520" y="1320" width="60" height="80" as="geometry" />
        </mxCell>
        <mxCell id="U8lzZILdDupNXbOiMmm9-59" style="edgeStyle=orthogonalEdgeStyle;rounded=1;orthogonalLoop=1;jettySize=auto;html=1;entryX=1;entryY=0.5;entryDx=0;entryDy=0;" parent="1" source="U8lzZILdDupNXbOiMmm9-61" target="U8lzZILdDupNXbOiMmm9-62" edge="1">
          <mxGeometry relative="1" as="geometry" />
        </mxCell>
        <mxCell id="U8lzZILdDupNXbOiMmm9-60" style="edgeStyle=orthogonalEdgeStyle;rounded=1;orthogonalLoop=1;jettySize=auto;html=1;entryX=1;entryY=0.5;entryDx=0;entryDy=0;" parent="1" source="U8lzZILdDupNXbOiMmm9-61" target="U8lzZILdDupNXbOiMmm9-63" edge="1">
          <mxGeometry relative="1" as="geometry" />
        </mxCell>
        <mxCell id="U8lzZILdDupNXbOiMmm9-61" value="出库单" style="rounded=1;whiteSpace=wrap;html=1;fillColor=#e3c800;strokeColor=#B09500;fontColor=#000000;" parent="1" vertex="1">
          <mxGeometry x="310" y="135" width="120" height="60" as="geometry" />
        </mxCell>
        <mxCell id="U8lzZILdDupNXbOiMmm9-62" value="&lt;div&gt;Shipment&lt;/div&gt;&lt;div&gt;出库单&lt;/div&gt;" style="text;html=1;align=center;verticalAlign=middle;whiteSpace=wrap;rounded=1;fillColor=#e3c800;strokeColor=#B09500;fontColor=#000000;" parent="1" vertex="1">
          <mxGeometry x="40" y="120" width="190" height="30" as="geometry" />
        </mxCell>
        <mxCell id="U8lzZILdDupNXbOiMmm9-63" value="&lt;div&gt;ShipmentActualLine&lt;/div&gt;&lt;div&gt;实际出库单&lt;/div&gt;" style="text;html=1;align=center;verticalAlign=middle;whiteSpace=wrap;rounded=1;fillColor=#e3c800;strokeColor=#B09500;fontColor=#000000;" parent="1" vertex="1">
          <mxGeometry x="40" y="165" width="190" height="30" as="geometry" />
        </mxCell>
        <mxCell id="U8lzZILdDupNXbOiMmm9-64" value="TbSalesOrder&lt;br&gt;&lt;div&gt;淘宝销售订单&lt;/div&gt;" style="text;html=1;align=center;verticalAlign=middle;whiteSpace=wrap;rounded=1;fillColor=#d5e8d4;strokeColor=#82b366;" parent="1" vertex="1">
          <mxGeometry x="910" y="236" width="120" height="30" as="geometry" />
        </mxCell>
        <mxCell id="U8lzZILdDupNXbOiMmm9-65" value="TbSubOrder&lt;br&gt;&lt;div&gt;淘宝销售订单明细&lt;/div&gt;" style="text;html=1;align=center;verticalAlign=middle;whiteSpace=wrap;rounded=1;fillColor=#d5e8d4;strokeColor=#82b366;" parent="1" vertex="1">
          <mxGeometry x="910" y="285" width="120" height="30" as="geometry" />
        </mxCell>
        <mxCell id="U8lzZILdDupNXbOiMmm9-66" style="edgeStyle=orthogonalEdgeStyle;rounded=1;orthogonalLoop=1;jettySize=auto;html=1;entryX=0.5;entryY=0;entryDx=0;entryDy=0;entryPerimeter=0;" parent="1" source="U8lzZILdDupNXbOiMmm9-54" target="U8lzZILdDupNXbOiMmm9-58" edge="1">
          <mxGeometry relative="1" as="geometry" />
        </mxCell>
        <mxCell id="U8lzZILdDupNXbOiMmm9-67" value="ops推送" style="edgeLabel;html=1;align=center;verticalAlign=middle;resizable=0;points=[];rounded=1;" parent="U8lzZILdDupNXbOiMmm9-66" vertex="1" connectable="0">
          <mxGeometry x="-0.093" relative="1" as="geometry">
            <mxPoint as="offset" />
          </mxGeometry>
        </mxCell>
        <mxCell id="U8lzZILdDupNXbOiMmm9-68" value="ignore_product&amp;nbsp;&lt;div&gt;黑名单&lt;/div&gt;" style="text;html=1;align=center;verticalAlign=middle;whiteSpace=wrap;rounded=1;fillColor=#e6d0de;strokeColor=#996185;gradientColor=#d5739d;" parent="1" vertex="1">
          <mxGeometry x="40" y="980" width="190" height="30" as="geometry" />
        </mxCell>
        <mxCell id="U8lzZILdDupNXbOiMmm9-69" value="&lt;div&gt;whitelist_product&lt;/div&gt;&lt;div&gt;白名单&lt;/div&gt;" style="text;html=1;align=center;verticalAlign=middle;whiteSpace=wrap;rounded=1;fillColor=#e6d0de;strokeColor=#996185;gradientColor=#d5739d;" parent="1" vertex="1">
          <mxGeometry x="40" y="1100" width="190" height="30" as="geometry" />
        </mxCell>
        <mxCell id="U8lzZILdDupNXbOiMmm9-70" value="api" style="text;html=1;align=center;verticalAlign=middle;whiteSpace=wrap;rounded=1;fillColor=#e51400;strokeColor=#B20000;fontColor=#ffffff;" parent="1" vertex="1">
          <mxGeometry x="230" y="1345" width="120" height="30" as="geometry" />
        </mxCell>
        <mxCell id="U8lzZILdDupNXbOiMmm9-71" value="文件（csv、excel）" style="text;html=1;align=center;verticalAlign=middle;whiteSpace=wrap;rounded=1;fillColor=#e51400;strokeColor=#B20000;fontColor=#ffffff;" parent="1" vertex="1">
          <mxGeometry x="710" y="1345" width="120" height="30" as="geometry" />
        </mxCell>
        <mxCell id="U8lzZILdDupNXbOiMmm9-72" style="edgeStyle=orthogonalEdgeStyle;rounded=1;orthogonalLoop=1;jettySize=auto;html=1;entryX=1;entryY=0.5;entryDx=0;entryDy=0;" parent="1" source="U8lzZILdDupNXbOiMmm9-77" target="U8lzZILdDupNXbOiMmm9-84" edge="1">
          <mxGeometry relative="1" as="geometry" />
        </mxCell>
        <mxCell id="U8lzZILdDupNXbOiMmm9-73" style="edgeStyle=orthogonalEdgeStyle;rounded=1;orthogonalLoop=1;jettySize=auto;html=1;entryX=1;entryY=0.5;entryDx=0;entryDy=0;" parent="1" source="U8lzZILdDupNXbOiMmm9-77" target="U8lzZILdDupNXbOiMmm9-90" edge="1">
          <mxGeometry relative="1" as="geometry" />
        </mxCell>
        <mxCell id="U8lzZILdDupNXbOiMmm9-74" style="edgeStyle=orthogonalEdgeStyle;rounded=1;orthogonalLoop=1;jettySize=auto;html=1;entryX=1;entryY=0.5;entryDx=0;entryDy=0;" parent="1" source="U8lzZILdDupNXbOiMmm9-77" target="U8lzZILdDupNXbOiMmm9-87" edge="1">
          <mxGeometry relative="1" as="geometry" />
        </mxCell>
        <mxCell id="U8lzZILdDupNXbOiMmm9-75" style="edgeStyle=orthogonalEdgeStyle;rounded=1;orthogonalLoop=1;jettySize=auto;html=1;entryX=1;entryY=0.5;entryDx=0;entryDy=0;" parent="1" source="U8lzZILdDupNXbOiMmm9-77" target="U8lzZILdDupNXbOiMmm9-88" edge="1">
          <mxGeometry relative="1" as="geometry" />
        </mxCell>
        <mxCell id="U8lzZILdDupNXbOiMmm9-76" style="edgeStyle=orthogonalEdgeStyle;rounded=1;orthogonalLoop=1;jettySize=auto;html=1;entryX=1;entryY=0.5;entryDx=0;entryDy=0;" parent="1" source="U8lzZILdDupNXbOiMmm9-77" target="U8lzZILdDupNXbOiMmm9-89" edge="1">
          <mxGeometry relative="1" as="geometry" />
        </mxCell>
        <mxCell id="U8lzZILdDupNXbOiMmm9-77" value="&lt;div&gt;queue&lt;/div&gt;&lt;div&gt;事件表（发货、退货入库等）&lt;/div&gt;" style="rounded=1;whiteSpace=wrap;html=1;fillColor=#f8cecc;strokeColor=#b85450;gradientColor=#ea6b66;" parent="1" vertex="1">
          <mxGeometry x="310" y="770" width="120" height="60" as="geometry" />
        </mxCell>
        <mxCell id="U8lzZILdDupNXbOiMmm9-78" style="edgeStyle=orthogonalEdgeStyle;rounded=1;orthogonalLoop=1;jettySize=auto;html=1;" parent="1" source="U8lzZILdDupNXbOiMmm9-79" target="U8lzZILdDupNXbOiMmm9-55" edge="1">
          <mxGeometry relative="1" as="geometry" />
        </mxCell>
        <mxCell id="U8lzZILdDupNXbOiMmm9-79" value="OrderList&lt;div&gt;销售出库和客退入库数据&lt;/div&gt;" style="rounded=1;whiteSpace=wrap;html=1;fillColor=#ffcd28;strokeColor=#d79b00;gradientColor=#ffa500;" parent="1" vertex="1">
          <mxGeometry x="720" y="760" width="120" height="60" as="geometry" />
        </mxCell>
        <mxCell id="U8lzZILdDupNXbOiMmm9-80" value="OrderListItem&lt;div&gt;订单销售客退入库的明细数据&lt;/div&gt;" style="rounded=1;whiteSpace=wrap;html=1;fillColor=#fff2cc;strokeColor=#d6b656;gradientColor=#ffd966;" parent="1" vertex="1">
          <mxGeometry x="720" y="880" width="120" height="60" as="geometry" />
        </mxCell>
        <mxCell id="U8lzZILdDupNXbOiMmm9-81" style="edgeStyle=orthogonalEdgeStyle;rounded=1;orthogonalLoop=1;jettySize=auto;html=1;entryX=1;entryY=0.5;entryDx=0;entryDy=0;" parent="1" source="U8lzZILdDupNXbOiMmm9-83" target="U8lzZILdDupNXbOiMmm9-68" edge="1">
          <mxGeometry relative="1" as="geometry" />
        </mxCell>
        <mxCell id="U8lzZILdDupNXbOiMmm9-82" style="edgeStyle=orthogonalEdgeStyle;rounded=1;orthogonalLoop=1;jettySize=auto;html=1;entryX=1;entryY=0.5;entryDx=0;entryDy=0;" parent="1" source="U8lzZILdDupNXbOiMmm9-83" target="U8lzZILdDupNXbOiMmm9-69" edge="1">
          <mxGeometry relative="1" as="geometry" />
        </mxCell>
        <mxCell id="U8lzZILdDupNXbOiMmm9-83" value="黑白名单" style="rounded=1;whiteSpace=wrap;html=1;fillColor=#e6d0de;strokeColor=#996185;gradientColor=#d5739d;" parent="1" vertex="1">
          <mxGeometry x="310" y="1010" width="120" height="60" as="geometry" />
        </mxCell>
        <mxCell id="U8lzZILdDupNXbOiMmm9-84" value="CONFIRMED&lt;div&gt;确认收货&lt;/div&gt;" style="text;html=1;align=center;verticalAlign=middle;whiteSpace=wrap;rounded=1;fillColor=#f8cecc;strokeColor=#b85450;gradientColor=#ea6b66;" parent="1" vertex="1">
          <mxGeometry x="40" y="680" width="190" height="30" as="geometry" />
        </mxCell>
        <mxCell id="U8lzZILdDupNXbOiMmm9-87" value="&amp;nbsp;ORDERLIST_TO_SEND&lt;br&gt;&lt;div&gt;发货/退货事件&lt;/div&gt;" style="text;html=1;align=center;verticalAlign=middle;whiteSpace=wrap;rounded=1;fillColor=#f8cecc;strokeColor=#b85450;gradientColor=#ea6b66;" parent="1" vertex="1">
          <mxGeometry x="40" y="785" width="190" height="30" as="geometry" />
        </mxCell>
        <mxCell id="U8lzZILdDupNXbOiMmm9-88" value="&amp;nbsp;ORDER_PAID_DY&lt;br&gt;&lt;div&gt;抖音付款事件&lt;/div&gt;" style="text;html=1;align=center;verticalAlign=middle;whiteSpace=wrap;rounded=1;fillColor=#f8cecc;strokeColor=#b85450;gradientColor=#ea6b66;" parent="1" vertex="1">
          <mxGeometry x="40" y="840" width="190" height="30" as="geometry" />
        </mxCell>
        <mxCell id="U8lzZILdDupNXbOiMmm9-89" value="RMA_WAREHOUSING_FINISH&lt;br&gt;&lt;div&gt;rma完结事件&lt;/div&gt;" style="text;html=1;align=center;verticalAlign=middle;whiteSpace=wrap;rounded=1;fillColor=#dae8fc;strokeColor=#6c8ebf;" parent="1" vertex="1">
          <mxGeometry x="40" y="900" width="190" height="30" as="geometry" />
        </mxCell>
        <mxCell id="U8lzZILdDupNXbOiMmm9-90" value="AFTER_ORDER_DISPATCHED&lt;br&gt;&lt;div&gt;发货/退货事件&lt;/div&gt;" style="text;html=1;align=center;verticalAlign=middle;whiteSpace=wrap;rounded=1;fillColor=#f8cecc;strokeColor=#b85450;gradientColor=#ea6b66;" parent="1" vertex="1">
          <mxGeometry x="40" y="730" width="190" height="30" as="geometry" />
        </mxCell>
        <mxCell id="U8lzZILdDupNXbOiMmm9-91" value="&amp;nbsp;ORDERLIST_TO_SEND&lt;br&gt;&lt;div&gt;发货/退货事件&lt;/div&gt;" style="text;html=1;align=center;verticalAlign=middle;whiteSpace=wrap;rounded=1;fillColor=#f8cecc;strokeColor=#b85450;gradientColor=#ea6b66;" parent="1" vertex="1">
          <mxGeometry x="40" y="895" width="190" height="30" as="geometry" />
        </mxCell>
      </root>
    </mxGraphModel>
  </diagram>
</mxfile>
